<?xml version="1.0" encoding="utf-8"?>
<!-- Generator: Adobe Illustrator 18.0.0, SVG Export Plug-In . SVG Version: 6.00 Build 0)  -->
<!DOCTYPE svg PUBLIC "-//W3C//DTD SVG 1.1//EN" "http://www.w3.org/Graphics/SVG/1.1/DTD/svg11.dtd">
<svg version="1.1" id="Layer_1" xmlns="http://www.w3.org/2000/svg" xmlns:xlink="http://www.w3.org/1999/xlink" x="0px" y="0px"
	 viewBox="0 0 727.8 47.9" enable-background="new 0 0 727.8 47.9" xml:space="preserve">
<g>
	<path fill="#378DE5" d="M26.5,47.9H1.4c-0.8,0-1.4-0.6-1.4-1.4V2.3c0-0.8,0.6-1.4,1.4-1.4h5.8c0.8,0,1.4,0.6,1.4,1.4v35.9
		c0,0.8,0.6,1.4,1.4,1.4h16.6c0.8,0,1.4,0.6,1.4,1.4v5.6C27.9,47.3,27.3,47.9,26.5,47.9z"/>
	<path fill="#378DE5" d="M53.2,47.9h-5.7c-0.8,0-1.5-0.7-1.5-1.5V2.4c0-0.8,0.7-1.5,1.5-1.5h5.7c0.8,0,1.5,0.7,1.5,1.5v44.1
		C54.7,47.3,54,47.9,53.2,47.9z"/>
	<path fill="#378DE5" d="M120.1,43.7l-3.2,3.8c-0.5,0.6-1.4,0.7-2,0.2l-3.5-3c-3.8,2.8-8.3,4.1-13.6,4.1c-6.8,0-12.4-2.3-16.7-6.8
		c-4.3-4.5-6.5-10.4-6.5-17.7c0-7.3,2.2-13.2,6.5-17.7C85.5,2.3,91,0,97.8,0c6.8,0,12.4,2.3,16.7,6.8c4.3,4.5,6.5,10.4,6.5,17.7
		c0,5.6-1.4,10.5-4.2,14.7l3.1,2.6C120.5,42.2,120.6,43.1,120.1,43.7z M108,12.7c-2.4-2.9-5.8-4.4-10.2-4.4S90,9.8,87.6,12.7
		c-2.4,2.9-3.6,6.8-3.6,11.7c0,4.9,1.2,8.8,3.6,11.7c2.4,2.9,5.8,4.4,10.2,4.4c4.3,0,8.4-2.3,10.3-4.7c2.6-3.1,3.4-8,3.4-11.4
		C111.6,19.6,110.4,15.7,108,12.7z"/>
	<path fill="#378DE5" d="M176.4,43.3c-3.3,3.7-8.1,5.6-14.6,5.6c-6.4,0-11.3-1.9-14.6-5.6c-3.3-3.7-4.9-8.9-4.9-15.5V2.3
		c0-0.8,0.6-1.4,1.4-1.4h5.9c0.8,0,1.4,0.6,1.4,1.4v22.6c0,5,0.8,8.8,2.3,11.6c1.5,2.7,4.4,4.1,8.6,4.1c4.2,0,7-1.4,8.6-4.1
		c1.5-2.7,2.3-6.6,2.3-11.6V2.3c0-0.8,0.6-1.4,1.4-1.4h5.9c0.8,0,1.4,0.6,1.4,1.4v25.5C181.3,34.4,179.7,39.5,176.4,43.3z"/>
	<path fill="#378DE5" d="M210.8,47.9H205c-0.8,0-1.4-0.6-1.4-1.4V2.4c0-0.8,0.6-1.4,1.4-1.4h5.8c0.8,0,1.4,0.6,1.4,1.4v44.2
		C212.2,47.3,211.5,47.9,210.8,47.9z"/>
	<path fill="#378DE5" d="M252.6,47.9h-16.2c-0.8,0-1.4-0.6-1.4-1.4V2.4c0-0.8,0.6-1.4,1.4-1.4h16.2c6.8,0,12.4,2.1,16.7,6.3
		s6.4,9.9,6.4,17.2c0,7.2-2.1,12.9-6.4,17.2S259.5,47.9,252.6,47.9z M252.6,9.3h-9v30.3h9c4.5,0,7.9-1.3,10.2-4
		c2.3-2.7,3.5-6.4,3.5-11.2c0-4.8-1.2-8.5-3.5-11.2C260.5,10.6,257.1,9.3,252.6,9.3z"/>
	<path fill="#378DE5" d="M358.8,47.9H353c-0.5,0-1-0.3-1.3-0.7l-9.1-16.7h-8.7v16.1c0,0.8-0.6,1.4-1.4,1.4h-5.8
		c-0.8,0-1.4-0.6-1.4-1.4V2.3c0-0.8,0.6-1.4,1.4-1.4h15.8c10.8,0,16.1,4.5,16.1,13.6c0,3.4-0.7,6.1-2.1,8.2c-1.4,2.1-3.4,4-5.9,5.5
		l9.5,17.5C360.7,46.7,359.9,47.9,358.8,47.9z M340.6,8.1h-6.6v14.3h6.3c3.6,0,6.1-0.6,7.5-1.9c1.3-1.3,2-3.1,2-5.4
		c0-2.4-0.6-4.1-1.9-5.3C346.4,8.7,344,8.1,340.6,8.1z"/>
	<path fill="#378DE5" d="M416.9,42.1c-4.3,4.5-9.9,6.8-16.7,6.8c-6.8,0-12.4-2.3-16.7-6.8c-4.3-4.5-6.5-10.4-6.5-17.7
		c0-7.3,2.2-13.2,6.5-17.7c4.3-4.5,9.9-6.8,16.7-6.8c6.8,0,12.4,2.3,16.7,6.8c4.3,4.5,6.5,10.4,6.5,17.7
		C423.3,31.7,421.2,37.6,416.9,42.1z M410.4,12.7c-2.4-2.9-5.8-4.4-10.2-4.4s-7.8,1.5-10.2,4.4c-2.4,2.9-3.6,6.8-3.6,11.7
		c0,4.9,1.2,8.8,3.6,11.7c2.4,2.9,5.8,4.4,10.2,4.4s7.8-1.5,10.2-4.4c2.4-2.9,3.6-6.8,3.6-11.7C413.9,19.6,412.8,15.7,410.4,12.7z"
		/>
	<path fill="#378DE5" d="M462.5,47.9h-16.8c-0.8,0-1.4-0.6-1.4-1.4V2.3c0-0.8,0.6-1.4,1.4-1.4H457c2.4,0,4.4,0.1,6.1,0.3
		c1.7,0.2,3.3,0.5,4.9,1c1.6,0.5,2.9,1.2,3.8,2c1,0.9,1.7,2,2.3,3.5c0.6,1.4,0.9,3.2,0.9,5.2c0,4.4-1.3,7.7-3.9,9.9
		c2.8,1.1,4.9,2.5,6.2,4.3c1.4,1.8,2,4.1,2,7.1c0,2.6-0.5,4.8-1.5,6.7c-1,1.9-2.3,3.3-4,4.3c-1.7,1-3.5,1.7-5.3,2.1
		C466.6,47.7,464.6,47.9,462.5,47.9z M460.5,8.1h-7.6v11.6h8.4c1.5,0,2.9-0.4,4-1.2c1.1-0.8,1.7-2.3,1.7-4.3c0-2.3-0.5-3.9-1.6-4.8
		C464.2,8.6,462.6,8.1,460.5,8.1z M461.8,26.6h-8.9v14.2h8.5c2.9,0,5.1-0.5,6.7-1.6c1.5-1.1,2.3-2.9,2.3-5.4
		C470.3,29,467.5,26.6,461.8,26.6z"/>
	<path fill="#378DE5" d="M535.8,42.1c-4.3,4.5-9.9,6.8-16.7,6.8c-6.8,0-12.4-2.3-16.7-6.8c-4.3-4.5-6.5-10.4-6.5-17.7
		c0-7.3,2.2-13.2,6.5-17.7c4.3-4.5,9.9-6.8,16.7-6.8c6.8,0,12.4,2.3,16.7,6.8c4.3,4.5,6.5,10.4,6.5,17.7
		C542.3,31.7,540.2,37.6,535.8,42.1z M529.4,12.7c-2.4-2.9-5.8-4.4-10.2-4.4s-7.8,1.5-10.2,4.4c-2.4,2.9-3.6,6.8-3.6,11.7
		c0,4.9,1.2,8.8,3.6,11.7c2.4,2.9,5.8,4.4,10.2,4.4s7.8-1.5,10.2-4.4c2.4-2.9,3.6-6.8,3.6-11.7C532.9,19.6,531.7,15.7,529.4,12.7z"
		/>
	<path fill="#378DE5" d="M591.1,9.3h-11.9v37.3c0,0.8-0.6,1.4-1.4,1.4H572c-0.8,0-1.4-0.6-1.4-1.4V9.3h-11.9c-0.8,0-1.4-0.6-1.4-1.4
		V2.3c0-0.8,0.6-1.4,1.4-1.4h32.4c0.8,0,1.4,0.6,1.4,1.4v5.5C592.5,8.6,591.9,9.3,591.1,9.3z"/>
	<path fill="#378DE5" d="M617.4,47.9h-5.8c-0.8,0-1.4-0.6-1.4-1.4V2.3c0-0.8,0.6-1.4,1.4-1.4h5.8c0.8,0,1.4,0.6,1.4,1.4v44.2
		C618.8,47.3,618.2,47.9,617.4,47.9z"/>
	<path fill="#378DE5" d="M662,48.9c-6.8,0-12.4-2.3-16.7-6.8c-4.3-4.5-6.5-10.4-6.5-17.7c0-7.3,2.2-13.2,6.5-17.7
		C649.6,2.3,655.2,0,662,0c4.4,0,8.3,0.7,11.7,2c1,0.4,1.6,1.4,1.4,2.4l-0.5,4.8c-0.1,0.9-1,1.4-1.8,1.1c-3.9-1.4-7.5-2.1-10.8-2.1
		c-4.4,0-7.8,1.5-10.2,4.4c-2.4,2.9-3.6,6.8-3.6,11.7c0,4.9,1.2,8.8,3.6,11.7c2.4,2.9,5.8,4.4,10.2,4.4c3.3,0,6.9-0.7,10.8-2.1
		c0.8-0.3,1.7,0.3,1.8,1.1l0.5,4.8c0.1,1-0.5,2-1.4,2.4C670.3,48.2,666.4,48.9,662,48.9z"/>
	<path fill="#378DE5" d="M709.5,48.9c-3.3,0-6.4-0.3-9.1-1c-1.9-0.5-3.5-1-4.7-1.6c-1-0.4-1.6-1.5-1.4-2.5l0.6-5.6
		c0.1-1.1,1.3-1.6,2.2-1c1.1,0.7,2.5,1.4,4.1,2c2.6,1,5.5,1.4,8.7,1.4c5.6,0,8.4-1.7,8.4-5.1c0-0.9-0.2-1.8-0.7-2.5
		c-0.4-0.8-0.9-1.4-1.4-1.9c-0.5-0.5-1.4-1-2.6-1.6c-1.2-0.6-2.1-1-2.8-1.2c-0.7-0.2-1.8-0.7-3.4-1.2c-1.4-0.5-2.3-0.8-2.8-1l-2.8-1
		c-1.3-0.5-2.2-0.9-2.8-1.3c-0.6-0.4-1.3-0.9-2.1-1.6c-0.9-0.7-1.5-1.4-1.9-2.1c-0.4-0.7-0.8-1.6-1.1-2.6c-0.3-1-0.5-2.1-0.5-3.2
		c0-3.7,1.4-7,4.1-9.9s7-4.3,12.7-4.3c3,0,5.9,0.4,8.7,1.2c1.9,0.5,3.5,1.1,4.7,1.7c1,0.4,1.5,1.5,1.4,2.5l-0.5,5.1
		c-0.1,1-1.1,1.5-2,1.1c-4.4-2.2-8.5-3.3-12-3.3c-2.3,0-4.3,0.4-6,1.1c-1.7,0.7-2.6,2-2.6,3.7c0,1.7,0.8,2.9,2.4,3.8
		c1.6,0.9,4,1.8,7.2,2.8c1.6,0.6,2.9,1.1,3.8,1.4c0.9,0.3,2.1,0.8,3.6,1.3c1.5,0.6,2.7,1.2,3.6,1.9c0.8,0.7,1.7,1.5,2.6,2.6
		c0.9,1,1.6,2.2,2,3.6c0.4,1.4,0.6,2.9,0.6,4.5c0,1.3-0.1,2.4-0.3,3.5c-0.2,1.1-0.7,2.3-1.5,3.6c-0.8,1.3-1.8,2.4-3.1,3.3
		c-1.3,0.9-3.1,1.7-5.3,2.3C715.2,48.6,712.6,48.9,709.5,48.9z"/>
</g>
</svg>
